<?xml version="1.0" standalone="no"?>
<svg viewBox="0 0 200 200" xmlns="http://www.w3.org/2000/svg">
  <mask id="mask0" mask-type="alpha">
    <path fill="#0F62FE" d="M55.3,-68.1C68.1,-55.1,72.5,-34.3,76.2,-13.5C79.8,7.4,82.7,28.4,75.4,45.7C68,63,50.4,76.7,30.6,83.9C10.7,91.1,-11.5,91.8,-30.3,84.5C-49.1,77.1,-64.4,61.6,-73.1,43.6C-81.8,25.7,-83.9,5.3,-77.8,-11C-71.6,-27.2,-57.3,-39.2,-43,-51.9C-28.7,-64.7,-14.3,-78.1,3.4,-82.2C21.2,-86.3,42.4,-81.1,55.3,-68.1Z" transform="translate(100 100)" />
  </mask>
  <g mask="url(#mask0)">
      <path fill="#0F62FE" d="M55.3,-68.1C68.1,-55.1,72.5,-34.3,76.2,-13.5C79.8,7.4,82.7,28.4,75.4,45.7C68,63,50.4,76.7,30.6,83.9C10.7,91.1,-11.5,91.8,-30.3,84.5C-49.1,77.1,-64.4,61.6,-73.1,43.6C-81.8,25.7,-83.9,5.3,-77.8,-11C-71.6,-27.2,-57.3,-39.2,-43,-51.9C-28.7,-64.7,-14.3,-78.1,3.4,-82.2C21.2,-86.3,42.4,-81.1,55.3,-68.1Z" transform="translate(100 100)" />
      <image xlink:href=""/>
  </g>
</svg>
